<?xml version="1.0" encoding="iso-8859-1"?>
<!-- Generator: Adobe Illustrator 19.0.0, SVG Export Plug-In . SVG Version: 6.00 Build 0)  -->
<svg version="1.1" id="Capa_1" xmlns="http://www.w3.org/2000/svg" xmlns:xlink="http://www.w3.org/1999/xlink" x="0px" y="0px"
	 viewBox="0 0 512 512" style="enable-background:new 0 0 512 512;" xml:space="preserve">
<g>
	<g>
		<path d="M326.883,43.22c-0.119-0.64-0.32-1.27-0.57-1.88c-0.25-0.6-0.56-1.18-0.92-1.72c-0.359-0.551-0.78-1.061-1.24-1.521
			c-0.46-0.46-0.97-0.88-1.52-1.25c-0.54-0.35-1.12-0.66-1.73-0.91c-0.6-0.25-1.229-0.449-1.869-0.569c-1.29-0.261-2.61-0.261-3.9,0
			c-0.64,0.12-1.271,0.319-1.87,0.569c-0.61,0.25-1.19,0.561-1.729,0.91c-0.551,0.37-1.061,0.79-1.521,1.25
			c-0.46,0.46-0.88,0.97-1.25,1.521c-0.36,0.54-0.66,1.12-0.91,1.72c-0.25,0.61-0.45,1.24-0.58,1.88
			c-0.12,0.64-0.189,1.3-0.189,1.95c0,0.649,0.069,1.31,0.189,1.95c0.13,0.64,0.33,1.27,0.58,1.87c0.25,0.609,0.55,1.189,0.92,1.729
			c0.36,0.55,0.78,1.061,1.24,1.521c0.46,0.46,0.97,0.88,1.521,1.239c0.539,0.36,1.119,0.67,1.729,0.92
			c0.6,0.25,1.23,0.45,1.87,0.57c0.64,0.13,1.3,0.2,1.95,0.2c0.649,0,1.31-0.07,1.95-0.2c0.64-0.12,1.27-0.32,1.869-0.57
			c0.61-0.25,1.19-0.56,1.73-0.92c0.55-0.359,1.06-0.779,1.52-1.239c0.46-0.46,0.881-0.971,1.24-1.521
			c0.36-0.54,0.67-1.12,0.92-1.729c0.25-0.601,0.45-1.23,0.57-1.87c0.13-0.641,0.2-1.301,0.2-1.95
			C327.083,44.52,327.013,43.859,326.883,43.22z"/>
	</g>
</g>
<g>
	<g>
		<path d="M279.083,35.17h-84.167c-5.522,0-10,4.478-10,10c0,5.522,4.478,10,10,10h84.167c5.522,0,10-4.478,10-10
			C289.083,39.648,284.605,35.17,279.083,35.17z"/>
	</g>
</g>
<g>
	<g>
		<path d="M269.178,456.83h-26.355c-5.522,0-10,4.478-10,10c0,5.522,4.478,10,10,10h26.355c5.522,0,10-4.478,10-10
			C279.178,461.308,274.7,456.83,269.178,456.83z"/>
	</g>
</g>
<g>
	<g>
		<g>
			<path d="M415.306,467.752C415.306,467.804,415.307,467.7,415.306,467.752L415.306,467.752z"/>
			<path d="M415.306,44.248C415.307,44.3,415.306,44.196,415.306,44.248L415.306,44.248z"/>
			<path d="M371.057,0H140.942c-24.399,0-44.249,19.85-44.249,44.248v423.504c0,24.398,19.85,44.248,44.249,44.248h230.115
				c24.399,0,44.249-19.85,44.249-44.248V44.248C415.306,19.85,395.457,0,371.057,0z M116.693,44.248
				c0-13.37,10.878-24.248,24.249-24.248h230.115c13.371,0,24.249,10.878,24.249,24.248v26.091H116.693V44.248z M116.693,151.67
				h150.206v52.027H116.693V151.67z M116.693,223.697h150.206v52.793H116.693V223.697z M116.693,296.49h150.206v52.792H116.693
				V296.49z M116.693,369.282h150.206v52.379H116.693V369.282z M371.057,492H140.942c-13.371,0-24.249-10.878-24.249-24.248v-26.091
				h160.206h118.407v26.091h0C395.306,481.122,384.428,492,371.057,492z M395.314,421.661H286.899V151.67h108.415V421.661z
				 M395.314,131.67H116.693V90.339h278.621V131.67z"/>
		</g>
	</g>
</g>
<g>
	<g>
		<path d="M150.337,166.743h-13.333c-5.522,0-10,4.478-10,10c0,5.522,4.477,10,10,10h13.333c5.522,0,10-4.478,10-10
			C160.337,171.221,155.859,166.743,150.337,166.743z"/>
	</g>
</g>
<g>
	<g>
		<path d="M150.337,240.094h-13.333c-5.522,0-10,4.478-10,10c0,5.522,4.478,10,10,10h13.333c5.522,0,10-4.478,10-10
			C160.337,244.572,155.859,240.094,150.337,240.094z"/>
	</g>
</g>
<g>
	<g>
		<path d="M150.337,313.445h-13.333c-5.522,0-10,4.478-10,10c0,5.522,4.478,10,10,10h13.333c5.522,0,10-4.478,10-10
			C160.337,317.923,155.859,313.445,150.337,313.445z"/>
	</g>
</g>
<g>
	<g>
		<path d="M150.337,386.796h-13.333c-5.522,0-10,4.478-10,10c0,5.522,4.478,10,10,10h13.333c5.522,0,10-4.478,10-10
			C160.337,391.274,155.859,386.796,150.337,386.796z"/>
	</g>
</g>
<g>
	<g>
		<path d="M342.359,281.769l-24.658-24.66c-3.906-3.904-10.236-3.904-14.143,0c-3.905,3.905-3.905,10.237,0,14.143l17.588,17.588
			l-17.588,17.588c-3.905,3.905-3.905,10.237,0,14.143c1.953,1.952,4.512,2.929,7.071,2.929s5.118-0.977,7.071-2.929l24.659-24.659
			C346.264,292.007,346.264,285.675,342.359,281.769z"/>
	</g>
</g>
<g>
</g>
<g>
</g>
<g>
</g>
<g>
</g>
<g>
</g>
<g>
</g>
<g>
</g>
<g>
</g>
<g>
</g>
<g>
</g>
<g>
</g>
<g>
</g>
<g>
</g>
<g>
</g>
<g>
</g>
</svg>
